<svg width="512" height="512" viewBox="0 0 512 512" fill="none" xmlns="http://www.w3.org/2000/svg">
<g clip-path="url(#clip0_7_3)">
<mask id="mask0_7_3" style="mask-type:luminance" maskUnits="userSpaceOnUse" x="-156" y="-156" width="825" height="825">
<path d="M669 -156H-156V669H669V-156Z" fill="white"/>
</mask>
<g mask="url(#mask0_7_3)">
<path d="M238.31 359.851C358.57 338.4 464.074 220.934 459.505 100.295C459.505 100.208 459.505 100.15 459.505 100.063C421.844 73.1117 376.382 56.1437 326.73 53.2914C186.794 45.2585 66.8833 152.189 58.8504 292.124C57.1042 322.742 49.7116 351.643 38.1862 378.245C86.4417 430.022 136.502 451.006 215.201 455.692C368.873 464.831 468.586 370.59 481.275 236.621C427.432 306.211 332.783 355.892 238.31 359.88V359.851Z" fill="#619A42"/>
</g>
</g>
<defs>
<clipPath id="clip0_7_3">
<rect width="512" height="512" fill="white"/>
</clipPath>
</defs>
</svg>
